<?xml version="1.0" standalone="no"?>
<svg viewBox="0 0 200 200" xmlns="http://www.w3.org/2000/svg">
  <path fill="#fff" d="M36.8,-58.9C45.3,-51.8,48.2,-37.6,54,-24.7C59.8,-11.8,68.6,-0.4,70.2,12.3C71.8,24.9,66.1,38.7,55.7,45.2C45.3,51.6,30,50.8,16.8,52.4C3.7,54,-7.3,58.1,-20.4,59C-33.6,60,-49,57.9,-55.6,48.9C-62.1,40,-59.8,24.1,-58.6,10.5C-57.3,-3.1,-57.1,-14.5,-52.1,-23.1C-47.1,-31.6,-37.4,-37.3,-27.9,-44C-18.4,-50.6,-9.2,-58.2,2.5,-62C14.1,-65.8,28.3,-65.9,36.8,-58.9Z" transform="translate(100 100)" />
</svg>
